<svg width="29" height="18" viewBox="0 0 29 18" fill="none" xmlns="http://www.w3.org/2000/svg">
<path d="M12 10.252H3.05263C2.77346 10.252 2.50572 10.1651 2.30831 10.0103C2.1109 9.85555 2 9.64565 2 9.4268V2.8252C2 2.60634 2.1109 2.39645 2.30831 2.2417C2.50572 2.08694 2.77346 2 3.05263 2H10.9474C11.2265 2 11.4943 2.08694 11.6917 2.2417C11.8891 2.39645 12 2.60634 12 2.8252V11.9024C12 12.9967 11.4455 14.0461 10.4585 14.8199C9.47142 15.5937 8.13272 16.0284 6.73684 16.0284" stroke="#FF5C00" stroke-width="3" stroke-linecap="square" stroke-linejoin="round"/>
<path d="M27 10.252H18.0526C17.7735 10.252 17.5057 10.1651 17.3083 10.0103C17.1109 9.85555 17 9.64565 17 9.4268V2.8252C17 2.60634 17.1109 2.39645 17.3083 2.2417C17.5057 2.08694 17.7735 2 18.0526 2H25.9474C26.2265 2 26.4943 2.08694 26.6917 2.2417C26.8891 2.39645 27 2.60634 27 2.8252V11.9024C27 12.9967 26.4455 14.0461 25.4585 14.8199C24.4714 15.5937 23.1327 16.0284 21.7368 16.0284" stroke="#FF5C00" stroke-width="3" stroke-linecap="square" stroke-linejoin="round"/>
</svg>
