<svg width="167" height="120" viewBox="0 0 167 120" fill="none" xmlns="http://www.w3.org/2000/svg">
<path d="M2.8552 89.1502V94.7184H1.4276C0.638907 94.7184 0 94.051 0 93.2415V90.6176C0 89.808 0.648386 89.1426 1.4276 89.1502H2.8552Z" fill="#FF7101"/>
<path d="M9.17425 82.3212L9.15529 102.205H6.62049C5.75597 102.205 5.06018 101.538 5.06018 100.73L5.07913 83.7886C5.08861 82.9696 5.78441 82.3117 6.63946 82.3117L9.17425 82.3212Z" fill="#FF7101"/>
<path d="M17.3152 77.7938L17.2773 105.629C17.2773 106.439 16.5834 107.097 15.7188 107.097H12.9205C12.0655 107.089 11.3716 106.429 11.3716 105.622L11.3905 91.702L11.4 77.7843C11.4 76.9767 12.1034 76.3169 12.9584 76.3169H15.7568C16.6194 76.3169 17.3152 76.9767 17.3152 77.7938Z" fill="#FF7101"/>
<path d="M60.0957 100.391V108.42C57.0415 108.498 54.1029 107.353 51.3804 104.992C55.2688 101.792 57.5989 100.264 60.0957 100.391Z" fill="white"/>
<path d="M60.0957 77.919V84.7934C59.4795 84.7934 58.9202 84.6759 58.6169 84.4901C55.8167 82.708 58.8918 79.4963 50.5688 79.2423C52.2922 78.3891 56.1503 77.8697 60.0957 77.919Z" fill="white"/>
<path d="M37.6731 54.3721C39.3813 58.1828 41.2506 58.6966 46.1439 56.5618C43.4404 54.8252 41.3511 51.8278 37.6731 54.3721Z" fill="white"/>
<path d="M60.0958 20.3732V50.8647C58.617 50.9727 57.197 49.6399 55.5324 46.8302C52.6734 53.0772 49.3253 54.9674 43.4879 51.805C38.4164 49.0541 34.7725 51.2571 29.6915 53.1947C33.6482 56.8955 37.1423 60.1659 41.6072 64.3577C38.3955 69.1751 34.6853 75.168 31.0717 80.5921C27.3027 77.1454 23.454 73.9527 20.0452 70.633C17.7645 68.4111 17.4403 60.9792 19.7609 57.815C22.6104 53.9379 22.6388 50.294 20.9553 45.9373C18.1361 38.6912 20.779 31.3181 27.242 26.9405C29.4356 25.4617 31.8737 24.3071 33.9307 22.671C39.1406 18.5095 44.9363 18.0204 51.1245 19.4783C54.1333 20.1874 57.1098 20.4225 60.0958 20.3732Z" fill="white"/>
<path d="M32.1277 92.7827V93.4671C32.1296 93.5316 32.1334 93.5979 32.1372 93.6662L19.5125 93.6586L19.5219 90.191L29.0905 90.2005H32.2471C32.2016 90.6707 32.1713 91.1466 32.1466 91.6262C32.1371 92.0092 32.1277 92.3902 32.1277 92.7827Z" fill="#FF7101"/>
<path d="M60.0939 55.7693V76.243C57.068 76.224 54.0422 76.3018 51.0353 76.5179C50.3888 76.5672 49.7632 76.9786 49.1167 77.5455C47.4218 79.0546 47.4332 81.7069 49.1357 83.2047C50.8211 84.6929 52.2999 85.9859 53.974 86.9453C60.073 90.4413 58.9582 94.3771 54.2963 99.0884C51.4676 101.947 47.5697 103.767 44.0642 105.923C43.2414 106.431 42.0071 106.716 41.0687 106.53C38.8258 106.088 36.0541 102.799 34.1942 99.4202C33.8909 98.8628 33.6159 98.3149 33.3619 97.7651C33.0491 97.0655 32.7799 96.3849 32.5751 95.746C32.541 95.6436 32.5107 95.5431 32.4803 95.4445C32.2888 94.7942 32.1751 94.1913 32.1372 93.6662C32.1334 93.5979 32.1296 93.5316 32.1277 93.4671V92.7827C32.1277 92.3902 32.1372 92.0092 32.1466 91.6262C32.1713 91.1465 32.2016 90.6707 32.2471 90.2005C32.2737 89.9028 32.3059 89.6071 32.3438 89.3151C32.3931 88.9189 32.45 88.5264 32.5163 88.1378C33.5932 81.6576 36.8484 76.1103 40.9511 70.7999C43.0461 68.0869 45.0728 65.2374 46.6103 62.1926C48.8228 57.8245 54.4328 55.6423 60.0939 55.7693Z" fill="white"/>
<path d="M32.8747 13.9158C32.6548 9.29363 32.814 4.65629 32.814 0.0227509C26.641 7.4148 23.528 15.7529 23.1241 25.8276C25.8846 23.5734 27.9852 21.7913 30.1579 20.1021C32.2054 18.5095 32.9998 16.5719 32.8747 13.9158Z" fill="white"/>
<path d="M74.8553 13.893C75.0752 9.27088 74.916 4.63354 74.916 0C81.089 7.39205 82.7801 14.767 83.1839 24.8418C82.9394 23.2644 82.6607 23.0141 81.9061 21.9581C81.3203 21.1391 79.432 19.0119 77.9342 18.3143C75.5947 17.226 74.7283 16.5511 74.8553 13.893Z" fill="#FF7101"/>
<path d="M63.2922 119.369V117.255H63.6051C63.7529 117.255 63.8818 117.198 63.9918 117.082C64.1018 116.967 64.1947 116.783 64.2724 116.531C64.3482 116.278 64.4108 115.951 64.4563 115.549C64.5018 115.147 64.534 114.656 64.5511 114.081L64.6004 112.411H68.4907V117.255H69.2643V119.369H68.2689V118.25H64.2876V119.369H63.2922ZM64.9625 117.255H67.3646V113.406H65.6299L65.6128 114.229C65.5957 114.8 65.5635 115.285 65.518 115.685C65.4706 116.085 65.4042 116.415 65.3208 116.673C65.2336 116.929 65.1161 117.124 64.9625 117.255Z" fill="#FF7101"/>
<path d="M72.0778 118.332C71.7327 118.332 71.4199 118.273 71.1393 118.157C70.8606 118.042 70.6218 117.88 70.4246 117.678C70.2274 117.475 70.0738 117.241 69.9677 116.978C69.8615 116.714 69.8065 116.438 69.8065 116.144C69.8065 115.736 69.8975 115.365 70.0814 115.029C70.2653 114.693 70.5288 114.422 70.872 114.219C71.2152 114.017 71.619 113.914 72.0854 113.914C72.5574 113.914 72.9613 114.017 73.2949 114.219C73.6305 114.422 73.8865 114.692 74.0647 115.025C74.2429 115.359 74.332 115.719 74.332 116.104C74.332 116.17 74.3282 116.237 74.3225 116.303C74.3168 116.371 74.3111 116.426 74.3054 116.47H70.9744C70.9971 116.684 71.0616 116.872 71.1678 117.033C71.2739 117.194 71.4123 117.315 71.5792 117.399C71.746 117.482 71.9261 117.524 72.1176 117.524C72.3356 117.524 72.5442 117.471 72.7375 117.365C72.9328 117.259 73.0655 117.116 73.1357 116.942L74.0817 117.205C73.9775 117.425 73.8277 117.619 73.6324 117.789C73.4371 117.96 73.2096 118.093 72.9461 118.188C72.6864 118.284 72.3944 118.332 72.0778 118.332ZM70.9497 115.774H73.2039C73.1812 115.56 73.1205 115.374 73.02 115.215C72.9196 115.057 72.7849 114.934 72.6219 114.845C72.457 114.756 72.2731 114.712 72.0702 114.712C71.873 114.712 71.6929 114.756 71.5318 114.845C71.3706 114.934 71.2379 115.057 71.1374 115.215C71.0331 115.374 70.9725 115.56 70.9497 115.774Z" fill="#FF7101"/>
<path d="M74.734 118.25V117.272C74.8648 117.266 74.9843 117.234 75.0885 117.177C75.1928 117.118 75.2838 117.018 75.3634 116.877C75.4431 116.737 75.5056 116.538 75.553 116.282C75.5985 116.026 75.6308 115.7 75.6478 115.3L75.7047 113.982H78.9372V118.193H77.8357V114.944H76.6754L76.6583 115.431C76.6356 115.981 76.5806 116.436 76.4934 116.796C76.4062 117.158 76.2829 117.444 76.1275 117.655C75.9701 117.865 75.7767 118.015 75.5473 118.106C75.3179 118.197 75.0468 118.244 74.734 118.25Z" fill="#FF7101"/>
<path d="M79.686 116.991C79.686 116.714 79.7638 116.472 79.9211 116.263C80.0785 116.055 80.2965 115.894 80.5752 115.78C80.8539 115.666 81.1762 115.609 81.5364 115.609C81.7184 115.609 81.9023 115.622 82.0881 115.651C82.2739 115.677 82.437 115.723 82.5735 115.782V115.552C82.5735 115.283 82.4938 115.076 82.3308 114.93C82.1696 114.784 81.9289 114.712 81.6122 114.712C81.3753 114.712 81.1515 114.754 80.9373 114.836C80.725 114.917 80.4994 115.038 80.2624 115.198L79.9079 114.474C80.1922 114.288 80.4861 114.147 80.7837 114.055C81.0833 113.962 81.3961 113.914 81.726 113.914C82.3403 113.914 82.818 114.066 83.1612 114.369C83.5043 114.673 83.675 115.105 83.675 115.666V117.02C83.675 117.133 83.6958 117.215 83.7356 117.262C83.7774 117.312 83.8437 117.34 83.9366 117.351V118.248C83.838 118.265 83.7489 118.279 83.6693 118.29C83.5897 118.301 83.5214 118.307 83.4683 118.307C83.2484 118.307 83.0835 118.258 82.9697 118.159C82.8579 118.061 82.7877 117.939 82.7612 117.797L82.7365 117.575C82.5507 117.816 82.3175 118.004 82.0369 118.134C81.7582 118.265 81.472 118.332 81.1819 118.332C80.8956 118.332 80.6397 118.273 80.4122 118.157C80.1847 118.04 80.0064 117.88 79.8775 117.678C79.7486 117.475 79.686 117.245 79.686 116.991ZM82.3668 117.205C82.4275 117.141 82.4768 117.077 82.5147 117.014C82.5526 116.95 82.5716 116.891 82.5716 116.838V116.413C82.4407 116.36 82.2967 116.318 82.145 116.288C81.9914 116.258 81.8454 116.244 81.7089 116.244C81.4246 116.244 81.1895 116.305 81.0056 116.424C80.8217 116.544 80.7288 116.703 80.7288 116.902C80.7288 117.008 80.7591 117.111 80.8198 117.207C80.8804 117.304 80.9677 117.382 81.0833 117.441C81.199 117.499 81.3355 117.528 81.4947 117.528C81.6596 117.528 81.8208 117.497 81.9801 117.435C82.1393 117.372 82.2682 117.296 82.3668 117.205Z" fill="#FF7101"/>
<path d="M86.7423 118.332C86.3973 118.332 86.0845 118.273 85.8039 118.157C85.5252 118.042 85.2863 117.88 85.0891 117.678C84.892 117.475 84.7384 117.241 84.6322 116.978C84.5261 116.714 84.4711 116.438 84.4711 116.144C84.4711 115.736 84.5621 115.365 84.746 115.029C84.9299 114.693 85.1934 114.422 85.5366 114.219C85.8797 114.017 86.2835 113.914 86.7499 113.914C87.222 113.914 87.6239 114.017 87.9595 114.219C88.2951 114.422 88.551 114.692 88.7292 115.025C88.9074 115.359 88.9965 115.719 88.9965 116.104C88.9965 116.17 88.9928 116.237 88.9871 116.303C88.9814 116.371 88.9757 116.426 88.97 116.47H85.6389C85.6617 116.684 85.7261 116.872 85.8323 117.033C85.9385 117.194 86.0769 117.315 86.2437 117.399C86.4106 117.482 86.5907 117.524 86.7822 117.524C87.0021 117.524 87.2087 117.471 87.4021 117.365C87.5974 117.259 87.7301 117.116 87.8002 116.942L88.7463 117.205C88.642 117.425 88.4922 117.619 88.297 117.789C88.1017 117.96 87.8742 118.093 87.6107 118.188C87.3509 118.284 87.0589 118.332 86.7423 118.332ZM85.6143 115.774H87.8685C87.8457 115.56 87.7851 115.374 87.6846 115.215C87.5841 115.057 87.4495 114.934 87.2865 114.845C87.1215 114.756 86.9376 114.712 86.7348 114.712C86.5376 114.712 86.3575 114.756 86.1963 114.845C86.0352 114.934 85.9025 115.057 85.802 115.215C85.6996 115.374 85.637 115.56 85.6143 115.774Z" fill="#FF7101"/>
<path d="M89.7113 118.25V113.981H90.8621L92.212 116.449L93.5694 113.981H94.7051V118.25H93.6604V115.488L92.5589 117.492H91.8669L90.7559 115.488V118.25H89.7113Z" fill="#FF7101"/>
<path d="M97.7709 118.25V113.981H98.8724V115.584H99.2421L100.41 113.981H101.61L100.08 116.036L101.775 118.248H100.516L99.225 116.553H98.8705V118.248H97.7709V118.25Z" fill="#FF7101"/>
<path d="M105.083 118.332C104.748 118.332 104.454 118.258 104.198 118.108C103.942 117.96 103.743 117.757 103.601 117.501V120H102.499V113.979H103.46V114.718C103.625 114.47 103.834 114.273 104.086 114.128C104.338 113.984 104.626 113.912 104.949 113.912C105.239 113.912 105.506 113.969 105.75 114.083C105.995 114.197 106.207 114.356 106.387 114.559C106.568 114.762 106.71 114.995 106.81 115.258C106.911 115.522 106.962 115.804 106.962 116.108C106.962 116.519 106.882 116.895 106.719 117.23C106.556 117.568 106.334 117.833 106.052 118.032C105.775 118.233 105.451 118.332 105.083 118.332ZM104.713 117.395C104.882 117.395 105.036 117.361 105.174 117.291C105.311 117.221 105.43 117.126 105.532 117.005C105.633 116.883 105.711 116.747 105.764 116.593C105.817 116.44 105.841 116.28 105.841 116.113C105.841 115.935 105.813 115.772 105.756 115.621C105.697 115.471 105.614 115.336 105.504 115.22C105.396 115.105 105.267 115.016 105.121 114.951C104.975 114.887 104.818 114.855 104.649 114.855C104.545 114.855 104.439 114.872 104.332 114.906C104.226 114.94 104.122 114.989 104.023 115.054C103.925 115.118 103.838 115.192 103.764 115.279C103.69 115.365 103.637 115.457 103.602 115.56V116.561C103.669 116.716 103.758 116.859 103.87 116.987C103.982 117.116 104.112 117.217 104.26 117.289C104.408 117.359 104.56 117.395 104.713 117.395Z" fill="#FF7101"/>
<path d="M107.461 116.991C107.461 116.714 107.538 116.472 107.696 116.263C107.853 116.055 108.071 115.894 108.35 115.78C108.629 115.666 108.951 115.609 109.311 115.609C109.493 115.609 109.677 115.622 109.863 115.651C110.049 115.677 110.212 115.723 110.348 115.782V115.552C110.348 115.283 110.268 115.076 110.105 114.93C109.944 114.784 109.704 114.712 109.387 114.712C109.15 114.712 108.926 114.754 108.712 114.836C108.5 114.917 108.274 115.038 108.037 115.198L107.683 114.474C107.967 114.288 108.261 114.147 108.558 114.055C108.858 113.962 109.171 113.914 109.501 113.914C110.115 113.914 110.593 114.066 110.936 114.369C111.279 114.673 111.45 115.105 111.45 115.666V117.02C111.45 117.133 111.47 117.215 111.51 117.262C111.552 117.312 111.618 117.34 111.711 117.351V118.248C111.613 118.265 111.524 118.279 111.444 118.29C111.364 118.301 111.296 118.307 111.243 118.307C111.023 118.307 110.858 118.258 110.744 118.159C110.632 118.061 110.562 117.939 110.536 117.797L110.511 117.575C110.325 117.816 110.092 118.004 109.812 118.134C109.533 118.265 109.247 118.332 108.957 118.332C108.67 118.332 108.414 118.273 108.187 118.157C107.959 118.04 107.781 117.88 107.652 117.678C107.523 117.475 107.461 117.245 107.461 116.991ZM110.141 117.205C110.202 117.141 110.251 117.077 110.289 117.014C110.327 116.95 110.346 116.891 110.346 116.838V116.413C110.215 116.36 110.071 116.318 109.92 116.288C109.766 116.258 109.62 116.244 109.484 116.244C109.199 116.244 108.964 116.305 108.78 116.424C108.596 116.544 108.503 116.703 108.503 116.902C108.503 117.008 108.534 117.111 108.594 117.207C108.655 117.304 108.742 117.382 108.858 117.441C108.974 117.499 109.11 117.528 109.269 117.528C109.434 117.528 109.595 117.497 109.755 117.435C109.914 117.372 110.043 117.296 110.141 117.205Z" fill="#FF7101"/>
<path d="M114.525 118.332C114.174 118.332 113.859 118.273 113.579 118.157C113.3 118.04 113.061 117.879 112.864 117.67C112.667 117.461 112.513 117.224 112.407 116.957C112.301 116.692 112.246 116.413 112.246 116.119C112.246 115.717 112.337 115.351 112.521 115.018C112.705 114.684 112.966 114.417 113.306 114.216C113.647 114.015 114.049 113.914 114.515 113.914C114.982 113.914 115.382 114.015 115.715 114.218C116.049 114.42 116.299 114.686 116.462 115.016L115.385 115.346C115.293 115.186 115.167 115.065 115.016 114.98C114.862 114.894 114.692 114.853 114.506 114.853C114.297 114.853 114.108 114.906 113.933 115.01C113.761 115.114 113.626 115.262 113.527 115.454C113.429 115.645 113.38 115.867 113.38 116.119C113.38 116.366 113.431 116.586 113.531 116.777C113.632 116.968 113.768 117.118 113.939 117.228C114.108 117.338 114.297 117.393 114.506 117.393C114.638 117.393 114.762 117.37 114.881 117.327C114.999 117.283 115.105 117.223 115.198 117.147C115.291 117.069 115.359 116.982 115.403 116.883L116.479 117.213C116.381 117.427 116.237 117.619 116.047 117.789C115.858 117.96 115.636 118.093 115.38 118.188C115.129 118.284 114.843 118.332 114.525 118.332Z" fill="#FF7101"/>
<path d="M117.198 118.25V113.99H118.299V116.792L120.233 113.982H121.236V118.252H120.133V115.514L118.225 118.252H117.198V118.25Z" fill="#FF7101"/>
<path d="M122.281 118.25V113.981H124.681C124.977 113.981 125.217 114.03 125.401 114.127C125.585 114.223 125.72 114.352 125.809 114.508C125.896 114.665 125.94 114.832 125.94 115.012C125.94 115.251 125.887 115.459 125.781 115.638C125.674 115.816 125.508 115.954 125.282 116.053C125.534 116.123 125.741 116.244 125.898 116.417C126.057 116.587 126.137 116.813 126.137 117.09C126.137 117.357 126.074 117.575 125.947 117.748C125.82 117.918 125.64 118.045 125.405 118.127C125.17 118.208 124.889 118.25 124.567 118.25H122.281ZM123.325 115.749H124.402C124.501 115.749 124.588 115.725 124.666 115.677C124.742 115.63 124.802 115.566 124.842 115.484C124.884 115.404 124.905 115.315 124.905 115.219C124.905 115.08 124.859 114.963 124.768 114.87C124.677 114.777 124.558 114.729 124.41 114.729H123.323V115.749H123.325ZM123.325 117.501H124.535C124.634 117.501 124.723 117.477 124.806 117.427C124.888 117.378 124.954 117.314 124.999 117.234C125.045 117.152 125.07 117.063 125.07 116.967C125.07 116.864 125.047 116.773 125.003 116.695C124.96 116.618 124.897 116.555 124.817 116.51C124.738 116.464 124.647 116.441 124.543 116.441H123.325V117.501Z" fill="#FF7101"/>
<path d="M126.977 118.25V113.981H128.078V115.321H128.835C129.354 115.321 129.752 115.452 130.027 115.713C130.302 115.975 130.439 116.32 130.439 116.749C130.439 117.037 130.38 117.295 130.262 117.524C130.145 117.751 129.974 117.93 129.749 118.059C129.523 118.186 129.244 118.25 128.911 118.25H126.977ZM128.078 117.41H128.736C128.89 117.41 129.013 117.38 129.108 117.321C129.201 117.262 129.271 117.185 129.316 117.086C129.364 116.989 129.386 116.879 129.386 116.754C129.386 116.637 129.364 116.529 129.32 116.436C129.277 116.341 129.206 116.265 129.112 116.21C129.015 116.153 128.888 116.125 128.729 116.125H128.078V117.41ZM131.114 118.25V113.99H132.217V118.25H131.114Z" fill="#FF7101"/>
<path d="M133.977 113.981L134.883 115.317L134.947 115.463L135.029 115.317L135.926 113.981H137.086L135.588 116.106L137.11 118.248H135.95L135.021 116.921L134.947 116.783L134.883 116.921L133.961 118.248H132.801L134.324 116.131L132.826 113.981H133.977Z" fill="#FF7101"/>
<path d="M139.38 118.25V117.272C139.511 117.266 139.63 117.234 139.734 117.177C139.839 117.118 139.93 117.018 140.009 116.877C140.089 116.737 140.151 116.538 140.199 116.282C140.244 116.026 140.277 115.7 140.294 115.3L140.35 113.982H143.583V118.193H142.481V114.944H141.321L141.304 115.431C141.281 115.981 141.226 116.436 141.139 116.796C141.052 117.158 140.929 117.444 140.773 117.655C140.616 117.865 140.423 118.015 140.193 118.106C139.964 118.197 139.693 118.244 139.38 118.25Z" fill="#FF7101"/>
<path d="M148.501 118.332C148.112 118.332 147.771 118.258 147.481 118.108C147.191 117.958 146.954 117.751 146.77 117.488C146.586 117.224 146.465 116.927 146.404 116.595H145.729V118.248H144.628V113.979H145.729V115.632H146.404C146.465 115.298 146.586 115.001 146.77 114.741C146.954 114.481 147.193 114.276 147.49 114.132C147.786 113.986 148.124 113.914 148.503 113.914C148.969 113.914 149.363 114.015 149.688 114.216C150.01 114.417 150.258 114.684 150.431 115.018C150.603 115.351 150.691 115.721 150.691 116.129C150.691 116.534 150.603 116.906 150.427 117.24C150.251 117.573 150.002 117.839 149.678 118.036C149.354 118.233 148.962 118.332 148.501 118.332ZM148.501 117.395C148.709 117.395 148.893 117.342 149.053 117.234C149.212 117.126 149.335 116.978 149.422 116.79C149.509 116.603 149.555 116.381 149.555 116.129C149.555 115.865 149.509 115.638 149.418 115.448C149.329 115.257 149.204 115.111 149.045 115.008C148.886 114.906 148.704 114.855 148.503 114.855C148.306 114.855 148.129 114.908 147.972 115.012C147.816 115.116 147.693 115.264 147.606 115.456C147.519 115.647 147.475 115.871 147.475 116.129C147.475 116.386 147.519 116.612 147.606 116.804C147.693 116.995 147.816 117.141 147.972 117.243C148.127 117.344 148.304 117.395 148.501 117.395Z" fill="#FF7101"/>
<path d="M151.11 119.295V117.287H151.225C151.335 117.287 151.438 117.257 151.534 117.198C151.629 117.139 151.714 117.037 151.788 116.893C151.862 116.749 151.923 116.55 151.97 116.295C152.016 116.041 152.048 115.715 152.065 115.321L152.114 113.981H155.347V117.287H155.948V119.295H154.985V118.25H152.082V119.295H151.11ZM152.613 117.287H154.242V114.91H153.074L153.049 115.435C153.032 115.791 153.006 116.091 152.971 116.335C152.935 116.58 152.89 116.781 152.831 116.934C152.774 117.09 152.702 117.207 152.613 117.287Z" fill="#FF7101"/>
<path d="M158.701 118.332C158.356 118.332 158.043 118.273 157.762 118.157C157.484 118.042 157.245 117.88 157.048 117.678C156.85 117.475 156.697 117.241 156.591 116.978C156.484 116.714 156.429 116.438 156.429 116.144C156.429 115.736 156.52 115.365 156.704 115.029C156.888 114.693 157.152 114.422 157.495 114.219C157.838 114.017 158.242 113.914 158.708 113.914C159.18 113.914 159.582 114.017 159.918 114.219C160.253 114.422 160.509 114.692 160.688 115.025C160.866 115.359 160.955 115.719 160.955 116.104C160.955 116.17 160.951 116.237 160.945 116.303C160.94 116.371 160.934 116.426 160.928 116.47H157.597C157.62 116.684 157.685 116.872 157.791 117.033C157.897 117.194 158.035 117.315 158.202 117.399C158.369 117.482 158.549 117.524 158.741 117.524C158.96 117.524 159.167 117.471 159.36 117.365C159.556 117.259 159.688 117.116 159.759 116.942L160.705 117.205C160.6 117.425 160.451 117.619 160.255 117.789C160.06 117.96 159.833 118.093 159.569 118.188C159.309 118.284 159.017 118.332 158.701 118.332ZM157.573 115.774H159.827C159.804 115.56 159.743 115.374 159.643 115.215C159.542 115.057 159.408 114.934 159.245 114.845C159.082 114.756 158.896 114.712 158.693 114.712C158.496 114.712 158.316 114.756 158.155 114.845C157.994 114.934 157.861 115.057 157.76 115.215C157.656 115.374 157.595 115.56 157.573 115.774Z" fill="#FF7101"/>
<path d="M161.67 118.25V113.99H162.771V116.792L164.705 113.982H165.708V118.252H164.605V115.514L162.697 118.252H161.67V118.25ZM163.693 113.537C163.27 113.537 162.938 113.429 162.697 113.213C162.455 112.997 162.335 112.718 162.335 112.379H163.018C163.018 112.543 163.073 112.68 163.183 112.79C163.293 112.9 163.463 112.955 163.693 112.955C163.922 112.955 164.089 112.904 164.189 112.799C164.29 112.695 164.352 112.555 164.375 112.38H165.058C165.058 112.72 164.936 112.999 164.696 113.215C164.455 113.429 164.121 113.537 163.693 113.537Z" fill="#FF7101"/>
<path d="M70.2652 20.3732C74.2428 20.3732 76.5065 22.2994 76.5065 25.7897V44.8983C76.5065 48.3887 74.2428 50.3661 70.2652 50.3661H68.43V62.6647H64.0865V20.3732H70.2652ZM68.4281 46.7203H70.2633C71.7308 46.7203 72.2199 46.3563 72.2199 45.0538V25.6854C72.2199 24.8001 71.9147 24.5384 71.7308 24.383C71.4862 24.1232 70.9952 24.019 70.2008 24.019H68.4262V46.7203H68.4281Z" fill="#FF7101"/>
<path d="M85.3242 28.4307V62.6741H81.0414V28.4307H85.3242Z" fill="#FF7101"/>
<path d="M100.122 20.3732V24.019H96.3281V62.6647H91.9846V24.019H88.1909V20.3732H100.122Z" fill="#FF7101"/>
<path d="M85.3167 66.5437V108.477H80.9732V88.5947L76.7511 108.477H73.0181L68.43 87.7169V108.477H64.0865V66.5437H68.1248L74.8552 96.91L81.2197 66.5437H85.3167Z" fill="white"/>
<path d="M103.121 71.8123V103.108C103.121 106.67 100.918 108.737 97.0011 108.737H96.3888C94.4929 108.737 92.961 108.221 91.8614 107.239C90.7599 106.259 90.2101 104.914 90.2101 103.108V71.8123C90.2101 70.0567 90.7618 68.7144 91.8614 67.7836C92.9022 66.8034 94.4303 66.2858 96.3888 66.2858H96.9405C98.8364 66.2858 100.306 66.8015 101.468 67.7836C102.569 68.7144 103.121 70.0567 103.121 71.8123ZM98.8383 71.7592C98.8383 70.1591 98.1652 69.9013 96.8798 69.9013H96.4513C95.1659 69.9013 94.4948 70.1591 94.4948 71.7592V103.208C94.4948 104.808 95.1678 105.119 96.4513 105.119H96.9424C97.9832 105.119 98.8383 105.017 98.8383 103.208V71.7592Z" fill="white"/>
<path d="M120.986 71.9147V103.108C120.986 104.81 120.434 106.103 119.272 107.083C118.11 108.014 116.58 108.477 114.805 108.477H108.014V66.5437H114.805C116.58 66.5437 118.11 67.0081 119.272 67.9371C120.434 68.9192 120.986 70.2103 120.986 71.9147ZM114.745 104.914C116.212 104.914 116.641 104.501 116.641 103.21V71.8123C116.641 70.5212 116.212 70.1591 114.745 70.1591H112.358V104.914H114.745Z" fill="white"/>
<path d="M136.708 104.914V108.477H125.879V66.5437H136.526V70.1591H130.162V84.8257H135.975V88.4411H130.162V104.914H136.708Z" fill="white"/>
<path d="M150.292 104.914V108.477H140.87V66.5437H145.153V104.914H150.292Z" fill="white"/>
<path d="M166.322 92.9324V103.106C166.322 106.668 164.119 108.735 160.202 108.735H159.59C157.694 108.735 156.164 108.219 155.063 107.237C153.9 106.204 153.351 104.81 153.351 103.106V90.2479H157.694V103.21C157.694 104.81 158.367 105.121 159.653 105.121H160.142C161.182 105.121 161.977 105.019 161.977 103.21V93.1391C161.977 91.4878 161.854 90.61 161.67 90.1948C161.488 89.7815 161.181 89.1103 160.263 88.1283L155.919 83.4815C155.002 82.5506 154.39 81.7259 154.084 80.9505C153.777 80.2793 153.593 79.1949 153.593 77.7483V71.8104C153.593 70.0017 154.145 68.6594 155.184 67.7816C156.285 66.8015 157.753 66.2839 159.588 66.2839H160.14C161.975 66.2839 163.444 66.7996 164.544 67.7816C165.585 68.7637 166.135 70.106 166.135 71.8104V81.6728H161.791V71.7573C161.791 69.9505 161.055 69.8993 160.079 69.8993H159.651C158.67 69.8993 157.876 69.9505 157.876 71.7573V77.644C157.876 78.9351 158.06 79.5039 158.121 79.7105C158.305 79.9172 158.428 80.4329 159.345 81.2595L159.406 81.3107L163.751 86.0106C164.792 87.095 165.463 88.1795 165.831 89.1615C166.138 90.1967 166.322 91.4347 166.322 92.9324Z" fill="white"/>
</svg>
